<?xml version="1.0" encoding="utf-8"?>
<!-- Generator: Adobe Illustrator 22.0.1, SVG Export Plug-In . SVG Version: 6.00 Build 0)  -->
<svg version="1.1" xmlns="http://www.w3.org/2000/svg" xmlns:xlink="http://www.w3.org/1999/xlink" x="0px" y="0px"
	 viewBox="0 0 374 379.5" style="enable-background:new 0 0 374 379.5;" xml:space="preserve">
<style type="text/css">
	.st0{fill:url(#SVGID_1_);}
	.st1{opacity:0.1;fill:url(#SVGID_2_);}
	.st2{opacity:0.1;fill:url(#SVGID_3_);}
	.st3{opacity:0.17;fill:url(#SVGID_4_);}
	.st4{opacity:0.13;fill:url(#SVGID_5_);}
	.st5{opacity:0.1;fill:url(#SVGID_6_);}
	.st6{opacity:0.18;fill:url(#SVGID_7_);}
	.st7{opacity:0.14;fill:url(#SVGID_8_);}
	.st8{opacity:0.14;fill:url(#SVGID_9_);}
	.st9{opacity:0.14;fill:url(#SVGID_10_);}
	.st10{opacity:0.14;fill:url(#SVGID_11_);}
	.st11{opacity:0.17;}
	.st12{fill:none;}
	.st13{fill:#FFFFFF;}
	.st14{opacity:0.52;}
	.st15{opacity:0.21;}
	.st16{opacity:0.61;}
	.st17{fill:#1B3450;}
	.st18{fill:#31244E;}
	.st19{fill:#008B75;}
	.st20{fill:#AD244E;}
	.st21{clip-path:url(#SVGID_13_);}
	.st22{fill:#FFA1A1;stroke:#9E1919;stroke-width:5.9794;stroke-linecap:round;stroke-linejoin:round;stroke-miterlimit:10;}
	.st23{fill:#D88282;stroke:#9E1919;stroke-width:5.9794;stroke-linecap:round;stroke-linejoin:round;stroke-miterlimit:10;}
	.st24{fill:#FFFFFF;stroke:#9E1919;stroke-width:5.9794;stroke-linecap:round;stroke-linejoin:round;stroke-miterlimit:10;}
	.st25{fill:#FFFFFF;stroke:#9E1919;stroke-width:2.3758;stroke-linecap:round;stroke-linejoin:round;stroke-miterlimit:10;}
	.st26{fill:#FFA1A1;stroke:#9E1919;stroke-width:4.637;stroke-linecap:round;stroke-linejoin:round;stroke-miterlimit:10;}
	.st27{opacity:0.3;fill:#9E1919;}
	.st28{fill:#001405;}
	.st29{clip-path:url(#SVGID_13_);fill:none;}
	.st30{fill:url(#SVGID_14_);}
	.st31{clip-path:url(#SVGID_16_);}
	.st32{fill:#488442;stroke:#005115;stroke-width:5;stroke-miterlimit:10;}
	.st33{fill:#58C44D;stroke:#005115;stroke-width:5;stroke-miterlimit:10;}
	.st34{opacity:0.3;fill:#005115;}
	.st35{fill:#FFFFFF;stroke:#005115;stroke-width:5;stroke-miterlimit:10;}
	.st36{fill:#7FEA73;stroke:#005115;stroke-width:5;stroke-miterlimit:10;}
	.st37{fill:url(#SVGID_17_);}
	.st38{clip-path:url(#SVGID_19_);}
	.st39{fill:#50E6FF;stroke:#005D82;stroke-width:5;stroke-linecap:round;stroke-linejoin:round;stroke-miterlimit:10;}
	.st40{fill:#2DA1AD;stroke:#005D82;stroke-width:5;stroke-linecap:round;stroke-linejoin:round;stroke-miterlimit:10;}
	.st41{opacity:0.3;fill:#005D82;}
	.st42{fill:#FFFFFF;stroke:#005D82;stroke-width:5;stroke-linecap:round;stroke-linejoin:round;stroke-miterlimit:10;}
	.st43{fill:none;stroke:#005D82;stroke-width:5;stroke-linecap:round;stroke-linejoin:round;stroke-miterlimit:10;}
	.st44{fill:url(#SVGID_20_);}
	.st45{clip-path:url(#SVGID_22_);}
	.st46{fill:#FF97E7;stroke:#9B0486;stroke-width:5;stroke-linecap:round;stroke-linejoin:round;stroke-miterlimit:10;}
	.st47{fill:none;stroke:#9B0486;stroke-width:5;stroke-linecap:round;stroke-linejoin:round;stroke-miterlimit:10;}
	.st48{opacity:0.3;fill:#9B0486;}
	.st49{fill:#FFFFFF;stroke:#9B0486;stroke-width:5;stroke-linecap:round;stroke-linejoin:round;stroke-miterlimit:10;}
	.st50{fill:url(#SVGID_23_);}
	.st51{clip-path:url(#SVGID_25_);fill:none;}
	.st52{clip-path:url(#SVGID_25_);}
	.st53{fill:#D18DE2;stroke:#460166;stroke-width:5.6255;stroke-miterlimit:10;}
	.st54{opacity:0.3;fill:#460166;}
	.st55{fill:none;stroke:#460166;stroke-width:5.6255;stroke-linecap:round;stroke-miterlimit:10;}
	.st56{fill:#FFFFFF;stroke:#460166;stroke-width:5.6255;stroke-miterlimit:10;}
	.st57{fill:url(#SVGID_26_);}
	.st58{fill:none;stroke:#000000;stroke-width:5;stroke-linecap:round;stroke-miterlimit:10;}
	.st59{clip-path:url(#SVGID_28_);}
	.st60{clip-path:url(#SVGID_30_);}
	.st61{clip-path:url(#SVGID_32_);}
	.st62{clip-path:url(#SVGID_34_);}
</style>
<g id="Layer_2">
</g>
<g id="Layer_1">
	<g>
		<circle class="st13" cx="187" cy="187" r="175"/>
		<g>
			<defs>
				<circle id="SVGID_12_" cx="187" cy="187" r="175"/>
			</defs>
			<clipPath id="SVGID_1_">
				<use xlink:href="#SVGID_12_"  style="overflow:visible;"/>
			</clipPath>
			<g style="clip-path:url(#SVGID_1_);">
				<path class="st22" d="M316.8,358.9c-4.9-55.9-54.2-97.3-110.1-92.5c-55.9,4.9-97.3,54.2-92.5,110.1L316.8,358.9z"/>
				<path class="st23" d="M73.5,180c-7.3-64,38.7-121.8,102.7-129.1c64-7.3,121.8,38.7,129.1,102.7c7.3,64-38.7,121.8-102.7,129.1
					C138.6,290,80.8,244,73.5,180z"/>
				<g>
					<path class="st22" d="M331.1,139.3c-5-43.9-44.6-75.4-88.5-70.4c-24.6,2.8-45.2,16.4-57.8,35.6c-16.7-19.5-42.5-30.7-69.9-27.6
						c-43.9,5-75.4,44.6-70.4,88.5c1.9,16.3,8.5,30.9,18.4,42.6c-3.6,10.3-5,21-3.8,31.9c6,52.7,71,88.5,145.1,80.1
						c74.1-8.4,129.4-58,123.4-110.7c-0.9-7.6-3-14.8-6.2-21.7C329.3,173.5,333.1,156.7,331.1,139.3z"/>
					<path class="st24" d="M176.3,161.7c3.2,28.2-17.1,53.7-45.3,57c-28.2,3.2-53.7-17.1-56.9-45.3c-3.2-28.2,17.1-53.7,45.3-57
						C147.6,113.2,173.1,133.5,176.3,161.7z"/>
					<polygon class="st25" points="137.1,256.4 157.8,263.5 143.6,280.7 					"/>
					<path class="st26" d="M130.2,251.7c0,0,49,27.5,99.1-0.8"/>
					<polygon class="st25" points="225.9,255.5 204.8,261.2 217.7,279.4 					"/>
					<path class="st27" d="M242.6,68.9c-22.6,2.6-41.8,14.3-54.6,31c32.5,4,145.5,22.6,105.8,83.3c0,0,41.7,53.6-45.3,126.2
						c50.5-19.1,83.6-58.6,78.9-100c-0.9-7.6-3-14.8-6.2-21.7c8-14.2,11.8-30.9,9.8-48.4C326.1,95.4,286.5,63.9,242.6,68.9z"/>
					<path class="st24" d="M307.9,153.3c3.5,30.4-18.4,57.8-48.7,61.3c-30.4,3.5-57.8-18.4-61.3-48.7c-3.5-30.4,18.4-57.8,48.7-61.3
						C277,101.1,304.4,122.9,307.9,153.3z"/>
					<path class="st28" d="M139,166c0.9,7.6-4.6,14.6-12.3,15.4c-7.6,0.9-14.6-4.6-15.4-12.3c-0.9-7.6,4.6-14.6,12.3-15.4
						C131.2,152.8,138.1,158.3,139,166z"/>
					<path class="st28" d="M266.8,158c0.9,7.7-4.6,14.6-12.3,15.4c-7.6,0.9-14.6-4.6-15.4-12.3c-0.9-7.6,4.6-14.6,12.3-15.4
						C259,144.8,265.9,150.3,266.8,158z"/>
				</g>
			</g>
			<rect x="34.8" y="29" style="clip-path:url(#SVGID_1_);fill:none;" width="303.4" height="303.4"/>
		</g>
		<g>
			<linearGradient id="SVGID_2_" gradientUnits="userSpaceOnUse" x1="0" y1="187" x2="374" y2="187">
				<stop  offset="3.145032e-02" style="stop-color:#008B75"/>
				<stop  offset="0.1583" style="stop-color:#0A6B68"/>
				<stop  offset="0.3061" style="stop-color:#134D5B"/>
				<stop  offset="0.4326" style="stop-color:#193B53"/>
				<stop  offset="0.522" style="stop-color:#1B3450"/>
				<stop  offset="1" style="stop-color:#31244E"/>
			</linearGradient>
			<path style="fill:url(#SVGID_2_);" d="M187,12c96.6,0,175,78.4,175,175s-78.4,175-175,175S12,283.6,12,187S90.4,12,187,12 M187,0
				c-25.2,0-49.7,4.9-72.8,14.7c-22.3,9.4-42.3,22.9-59.4,40.1c-17.2,17.2-30.7,37.2-40.1,59.4C4.9,137.3,0,161.8,0,187
				s4.9,49.7,14.7,72.8c9.4,22.3,22.9,42.3,40.1,59.4c17.2,17.2,37.2,30.7,59.4,40.1c23.1,9.8,47.6,14.7,72.8,14.7
				s49.7-4.9,72.8-14.7c22.3-9.4,42.3-22.9,59.4-40.1c17.2-17.2,30.7-37.2,40.1-59.4c9.8-23.1,14.7-47.6,14.7-72.8
				s-4.9-49.7-14.7-72.8c-9.4-22.3-22.9-42.3-40.1-59.4c-17.2-17.2-37.2-30.7-59.4-40.1C236.7,4.9,212.2,0,187,0L187,0z"/>
		</g>
	</g>
</g>
</svg>
