<?xml version="1.0" encoding="utf-8"?>
<!-- Generator: Adobe Illustrator 22.0.1, SVG Export Plug-In . SVG Version: 6.00 Build 0)  -->
<svg version="1.1" xmlns="http://www.w3.org/2000/svg" xmlns:xlink="http://www.w3.org/1999/xlink" x="0px" y="0px"
	 viewBox="0 0 374 377.4" style="enable-background:new 0 0 374 377.4;" xml:space="preserve">
<style type="text/css">
	.st0{fill:url(#SVGID_1_);}
	.st1{opacity:0.1;fill:url(#SVGID_2_);}
	.st2{opacity:0.1;fill:url(#SVGID_3_);}
	.st3{opacity:0.17;fill:url(#SVGID_4_);}
	.st4{opacity:0.13;fill:url(#SVGID_5_);}
	.st5{opacity:0.1;fill:url(#SVGID_6_);}
	.st6{opacity:0.18;fill:url(#SVGID_7_);}
	.st7{opacity:0.14;fill:url(#SVGID_8_);}
	.st8{opacity:0.14;fill:url(#SVGID_9_);}
	.st9{opacity:0.14;fill:url(#SVGID_10_);}
	.st10{opacity:0.14;fill:url(#SVGID_11_);}
	.st11{opacity:0.17;}
	.st12{fill:none;}
	.st13{fill:#FFFFFF;}
	.st14{opacity:0.52;}
	.st15{opacity:0.21;}
	.st16{opacity:0.61;}
	.st17{fill:#1B3450;}
	.st18{fill:#31244E;}
	.st19{fill:#008B75;}
	.st20{fill:#AD244E;}
	.st21{clip-path:url(#SVGID_13_);}
	.st22{fill:#FFA1A1;stroke:#9E1919;stroke-width:5.9794;stroke-linecap:round;stroke-linejoin:round;stroke-miterlimit:10;}
	.st23{fill:#D88282;stroke:#9E1919;stroke-width:5.9794;stroke-linecap:round;stroke-linejoin:round;stroke-miterlimit:10;}
	.st24{fill:#FFFFFF;stroke:#9E1919;stroke-width:5.9794;stroke-linecap:round;stroke-linejoin:round;stroke-miterlimit:10;}
	.st25{fill:#FFFFFF;stroke:#9E1919;stroke-width:2.3758;stroke-linecap:round;stroke-linejoin:round;stroke-miterlimit:10;}
	.st26{fill:#FFA1A1;stroke:#9E1919;stroke-width:4.637;stroke-linecap:round;stroke-linejoin:round;stroke-miterlimit:10;}
	.st27{opacity:0.3;fill:#9E1919;}
	.st28{fill:#001405;}
	.st29{clip-path:url(#SVGID_13_);fill:none;}
	.st30{fill:url(#SVGID_14_);}
	.st31{clip-path:url(#SVGID_16_);}
	.st32{fill:#488442;stroke:#005115;stroke-width:5;stroke-miterlimit:10;}
	.st33{fill:#58C44D;stroke:#005115;stroke-width:5;stroke-miterlimit:10;}
	.st34{opacity:0.3;fill:#005115;}
	.st35{fill:#FFFFFF;stroke:#005115;stroke-width:5;stroke-miterlimit:10;}
	.st36{fill:#7FEA73;stroke:#005115;stroke-width:5;stroke-miterlimit:10;}
	.st37{fill:url(#SVGID_17_);}
	.st38{clip-path:url(#SVGID_19_);}
	.st39{fill:#50E6FF;stroke:#005D82;stroke-width:5;stroke-linecap:round;stroke-linejoin:round;stroke-miterlimit:10;}
	.st40{fill:#2DA1AD;stroke:#005D82;stroke-width:5;stroke-linecap:round;stroke-linejoin:round;stroke-miterlimit:10;}
	.st41{opacity:0.3;fill:#005D82;}
	.st42{fill:#FFFFFF;stroke:#005D82;stroke-width:5;stroke-linecap:round;stroke-linejoin:round;stroke-miterlimit:10;}
	.st43{fill:none;stroke:#005D82;stroke-width:5;stroke-linecap:round;stroke-linejoin:round;stroke-miterlimit:10;}
	.st44{fill:url(#SVGID_20_);}
	.st45{clip-path:url(#SVGID_22_);}
	.st46{fill:#FF97E7;stroke:#9B0486;stroke-width:5;stroke-linecap:round;stroke-linejoin:round;stroke-miterlimit:10;}
	.st47{fill:none;stroke:#9B0486;stroke-width:5;stroke-linecap:round;stroke-linejoin:round;stroke-miterlimit:10;}
	.st48{opacity:0.3;fill:#9B0486;}
	.st49{fill:#FFFFFF;stroke:#9B0486;stroke-width:5;stroke-linecap:round;stroke-linejoin:round;stroke-miterlimit:10;}
	.st50{fill:url(#SVGID_23_);}
	.st51{clip-path:url(#SVGID_25_);fill:none;}
	.st52{clip-path:url(#SVGID_25_);}
	.st53{fill:#D18DE2;stroke:#460166;stroke-width:5.6255;stroke-miterlimit:10;}
	.st54{opacity:0.3;fill:#460166;}
	.st55{fill:none;stroke:#460166;stroke-width:5.6255;stroke-linecap:round;stroke-miterlimit:10;}
	.st56{fill:#FFFFFF;stroke:#460166;stroke-width:5.6255;stroke-miterlimit:10;}
	.st57{fill:url(#SVGID_26_);}
	.st58{fill:none;stroke:#000000;stroke-width:5;stroke-linecap:round;stroke-miterlimit:10;}
	.st59{clip-path:url(#SVGID_28_);}
	.st60{clip-path:url(#SVGID_30_);}
	.st61{clip-path:url(#SVGID_32_);}
	.st62{clip-path:url(#SVGID_34_);}
</style>
<g id="Layer_2">
</g>
<g id="Layer_1">
	<g>
		<g>
			<circle class="st13" cx="187" cy="187" r="175"/>
		</g>
		<g>
			<defs>
				<circle id="SVGID_21_" cx="187" cy="187" r="175"/>
			</defs>
			<clipPath id="SVGID_1_">
				<use xlink:href="#SVGID_21_"  style="overflow:visible;"/>
			</clipPath>
			<g style="clip-path:url(#SVGID_1_);">
				<path class="st46" d="M299,357.3c-4.9-55.9-54.2-97.3-110.1-92.5C133,269.7,91.6,319,96.4,374.9L299,357.3z"/>
				<g>
					<polygon class="st46" points="92.5,303.9 302.6,279.6 176.6,33.6 					"/>
					<path class="st47" d="M174.1,236.3c0,0,22.8,27.2,44.7-4.6"/>
					<path class="st48" d="M302.6,279.6l-126-246.1l-21.1,67.8c26.2,27.2,83.5,86.2,103.1,183.5L302.6,279.6z"/>
					<path class="st49" d="M187,123.7c3.5,33.6-20.9,63.7-54.6,67.2c-33.6,3.5-63.7-20.9-67.2-54.6c-3.5-33.6,20.9-63.7,54.6-67.2
						C153.4,65.7,183.5,90.1,187,123.7z"/>
					<path class="st28" d="M141.5,128.5c0.9,8.5-5.3,16-13.8,16.9c-8.5,0.9-16.1-5.3-16.9-13.7c-0.9-8.5,5.3-16.1,13.8-16.9
						C133,113.8,140.6,120,141.5,128.5z"/>
					<path class="st49" d="M308.7,111.1c3.5,33.6-20.9,63.7-54.6,67.2c-33.6,3.5-63.7-20.9-67.2-54.6c-3.5-33.6,20.9-63.7,54.6-67.2
						C275.2,53.1,305.3,77.5,308.7,111.1z"/>
					<path class="st28" d="M263.2,115.8c0.9,8.5-5.3,16.1-13.8,16.9c-8.5,0.9-16.1-5.3-16.9-13.7c-0.9-8.5,5.3-16.1,13.8-16.9
						C254.8,101.2,262.3,107.4,263.2,115.8z"/>
				</g>
			</g>
		</g>
		<g>
			<linearGradient id="SVGID_2_" gradientUnits="userSpaceOnUse" x1="0" y1="187" x2="374" y2="187">
				<stop  offset="3.145032e-02" style="stop-color:#008B75"/>
				<stop  offset="0.1583" style="stop-color:#0A6B68"/>
				<stop  offset="0.3061" style="stop-color:#134D5B"/>
				<stop  offset="0.4326" style="stop-color:#193B53"/>
				<stop  offset="0.522" style="stop-color:#1B3450"/>
				<stop  offset="1" style="stop-color:#31244E"/>
			</linearGradient>
			<path style="fill:url(#SVGID_2_);" d="M187,12c96.6,0,175,78.4,175,175s-78.4,175-175,175S12,283.6,12,187S90.4,12,187,12 M187,0
				c-25.2,0-49.7,4.9-72.8,14.7c-22.3,9.4-42.3,22.9-59.4,40.1c-17.2,17.2-30.7,37.2-40.1,59.4C4.9,137.3,0,161.8,0,187
				s4.9,49.7,14.7,72.8c9.4,22.3,22.9,42.3,40.1,59.4c17.2,17.2,37.2,30.7,59.4,40.1c23.1,9.8,47.6,14.7,72.8,14.7
				s49.7-4.9,72.8-14.7c22.3-9.4,42.3-22.9,59.4-40.1c17.2-17.2,30.7-37.2,40.1-59.4c9.8-23.1,14.7-47.6,14.7-72.8
				s-4.9-49.7-14.7-72.8c-9.4-22.3-22.9-42.3-40.1-59.4c-17.2-17.2-37.2-30.7-59.4-40.1C236.7,4.9,212.2,0,187,0L187,0z"/>
		</g>
	</g>
</g>
</svg>
