<?xml version="1.0" encoding="utf-8"?>
<!-- Generator: Adobe Illustrator 22.0.1, SVG Export Plug-In . SVG Version: 6.00 Build 0)  -->
<svg version="1.1" xmlns="http://www.w3.org/2000/svg" xmlns:xlink="http://www.w3.org/1999/xlink" x="0px" y="0px"
	 viewBox="0 0 374 374.4" style="enable-background:new 0 0 374 374.4;" xml:space="preserve">
<style type="text/css">
	.st0{fill:url(#SVGID_1_);}
	.st1{opacity:0.1;fill:url(#SVGID_2_);}
	.st2{opacity:0.1;fill:url(#SVGID_3_);}
	.st3{opacity:0.17;fill:url(#SVGID_4_);}
	.st4{opacity:0.13;fill:url(#SVGID_5_);}
	.st5{opacity:0.1;fill:url(#SVGID_6_);}
	.st6{opacity:0.18;fill:url(#SVGID_7_);}
	.st7{opacity:0.14;fill:url(#SVGID_8_);}
	.st8{opacity:0.14;fill:url(#SVGID_9_);}
	.st9{opacity:0.14;fill:url(#SVGID_10_);}
	.st10{opacity:0.14;fill:url(#SVGID_11_);}
	.st11{opacity:0.17;}
	.st12{fill:none;}
	.st13{fill:#FFFFFF;}
	.st14{opacity:0.52;}
	.st15{opacity:0.21;}
	.st16{opacity:0.61;}
	.st17{fill:#1B3450;}
	.st18{fill:#31244E;}
	.st19{fill:#008B75;}
	.st20{fill:#AD244E;}
	.st21{clip-path:url(#SVGID_13_);}
	.st22{fill:#FFA1A1;stroke:#9E1919;stroke-width:5.9794;stroke-linecap:round;stroke-linejoin:round;stroke-miterlimit:10;}
	.st23{fill:#D88282;stroke:#9E1919;stroke-width:5.9794;stroke-linecap:round;stroke-linejoin:round;stroke-miterlimit:10;}
	.st24{fill:#FFFFFF;stroke:#9E1919;stroke-width:5.9794;stroke-linecap:round;stroke-linejoin:round;stroke-miterlimit:10;}
	.st25{fill:#FFFFFF;stroke:#9E1919;stroke-width:2.3758;stroke-linecap:round;stroke-linejoin:round;stroke-miterlimit:10;}
	.st26{fill:#FFA1A1;stroke:#9E1919;stroke-width:4.637;stroke-linecap:round;stroke-linejoin:round;stroke-miterlimit:10;}
	.st27{opacity:0.3;fill:#9E1919;}
	.st28{fill:#001405;}
	.st29{clip-path:url(#SVGID_13_);fill:none;}
	.st30{fill:url(#SVGID_14_);}
	.st31{clip-path:url(#SVGID_16_);}
	.st32{fill:#488442;stroke:#005115;stroke-width:5;stroke-miterlimit:10;}
	.st33{fill:#58C44D;stroke:#005115;stroke-width:5;stroke-miterlimit:10;}
	.st34{opacity:0.3;fill:#005115;}
	.st35{fill:#FFFFFF;stroke:#005115;stroke-width:5;stroke-miterlimit:10;}
	.st36{fill:#7FEA73;stroke:#005115;stroke-width:5;stroke-miterlimit:10;}
	.st37{fill:url(#SVGID_17_);}
	.st38{clip-path:url(#SVGID_19_);}
	.st39{fill:#50E6FF;stroke:#005D82;stroke-width:5;stroke-linecap:round;stroke-linejoin:round;stroke-miterlimit:10;}
	.st40{fill:#2DA1AD;stroke:#005D82;stroke-width:5;stroke-linecap:round;stroke-linejoin:round;stroke-miterlimit:10;}
	.st41{opacity:0.3;fill:#005D82;}
	.st42{fill:#FFFFFF;stroke:#005D82;stroke-width:5;stroke-linecap:round;stroke-linejoin:round;stroke-miterlimit:10;}
	.st43{fill:none;stroke:#005D82;stroke-width:5;stroke-linecap:round;stroke-linejoin:round;stroke-miterlimit:10;}
	.st44{fill:url(#SVGID_20_);}
	.st45{clip-path:url(#SVGID_22_);}
	.st46{fill:#FF97E7;stroke:#9B0486;stroke-width:5;stroke-linecap:round;stroke-linejoin:round;stroke-miterlimit:10;}
	.st47{fill:none;stroke:#9B0486;stroke-width:5;stroke-linecap:round;stroke-linejoin:round;stroke-miterlimit:10;}
	.st48{opacity:0.3;fill:#9B0486;}
	.st49{fill:#FFFFFF;stroke:#9B0486;stroke-width:5;stroke-linecap:round;stroke-linejoin:round;stroke-miterlimit:10;}
	.st50{fill:url(#SVGID_23_);}
	.st51{clip-path:url(#SVGID_25_);fill:none;}
	.st52{clip-path:url(#SVGID_25_);}
	.st53{fill:#D18DE2;stroke:#460166;stroke-width:5.6255;stroke-miterlimit:10;}
	.st54{opacity:0.3;fill:#460166;}
	.st55{fill:none;stroke:#460166;stroke-width:5.6255;stroke-linecap:round;stroke-miterlimit:10;}
	.st56{fill:#FFFFFF;stroke:#460166;stroke-width:5.6255;stroke-miterlimit:10;}
	.st57{fill:url(#SVGID_26_);}
	.st58{fill:none;stroke:#000000;stroke-width:5;stroke-linecap:round;stroke-miterlimit:10;}
	.st59{clip-path:url(#SVGID_28_);}
	.st60{clip-path:url(#SVGID_30_);}
	.st61{clip-path:url(#SVGID_32_);}
	.st62{clip-path:url(#SVGID_34_);}
</style>
<g id="Layer_2">
</g>
<g id="Layer_1">
	<g>
		<circle class="st13" cx="187" cy="187" r="175"/>
		<g>
			<defs>
				<circle id="SVGID_24_" cx="187" cy="187" r="175"/>
			</defs>
			<clipPath id="SVGID_1_">
				<use xlink:href="#SVGID_24_"  style="overflow:visible;"/>
			</clipPath>
			<rect x="36.8" y="19.8" style="clip-path:url(#SVGID_1_);fill:none;" width="303.4" height="303.4"/>
			<g style="clip-path:url(#SVGID_1_);">
				<path class="st53" d="M304.1,390.8c-4.9-55.9-54.2-97.3-110.1-92.5c-55.9,4.9-97.3,54.2-92.5,110.1L304.1,390.8z"/>
				<path class="st53" d="M335.9,178.6c6.5,81-53.9,152-134.9,158.6c-81,6.5-152-53.9-158.6-134.9c-6.5-81,53.9-152,134.9-158.6
					C258.4,37.2,329.4,97.6,335.9,178.6z"/>
				<path class="st54" d="M229.2,48.7c150.7,162.7,44.3,253.3-52.3,288.4c7.9,0.7,16,0.7,24.1,0c81-6.5,141.4-77.5,134.9-158.6
					C330.9,115.5,286.7,65,229.2,48.7z"/>
				<path class="st55" d="M133,287.5c0,0,49.2,23.6,82.2-6.6"/>
				<g>
					<path class="st56" d="M270.9,159.7c3.7,46.2-30.7,86.7-76.9,90.4c-46.2,3.7-86.7-30.7-90.4-76.9c-3.7-46.2,30.7-86.7,76.9-90.4
						C226.7,79.1,267.2,113.5,270.9,159.7z"/>
					<path d="M202.9,165.2c0.7,8.6-5.7,16.2-14.4,16.9c-8.6,0.7-16.2-5.7-16.9-14.4c-0.7-8.6,5.7-16.2,14.4-16.9
						C194.7,150.1,202.2,156.6,202.9,165.2z"/>
				</g>
			</g>
		</g>
		<g>
			<linearGradient id="SVGID_2_" gradientUnits="userSpaceOnUse" x1="0" y1="187" x2="374" y2="187">
				<stop  offset="3.145032e-02" style="stop-color:#008B75"/>
				<stop  offset="0.1583" style="stop-color:#0A6B68"/>
				<stop  offset="0.3061" style="stop-color:#134D5B"/>
				<stop  offset="0.4326" style="stop-color:#193B53"/>
				<stop  offset="0.522" style="stop-color:#1B3450"/>
				<stop  offset="1" style="stop-color:#31244E"/>
			</linearGradient>
			<path style="fill:url(#SVGID_2_);" d="M187,12c96.6,0,175,78.4,175,175s-78.4,175-175,175S12,283.6,12,187S90.4,12,187,12 M187,0
				c-25.2,0-49.7,4.9-72.8,14.7c-22.3,9.4-42.3,22.9-59.4,40.1c-17.2,17.2-30.7,37.2-40.1,59.4C4.9,137.3,0,161.8,0,187
				s4.9,49.7,14.7,72.8c9.4,22.3,22.9,42.3,40.1,59.4c17.2,17.2,37.2,30.7,59.4,40.1c23.1,9.8,47.6,14.7,72.8,14.7
				s49.7-4.9,72.8-14.7c22.3-9.4,42.3-22.9,59.4-40.1c17.2-17.2,30.7-37.2,40.1-59.4c9.8-23.1,14.7-47.6,14.7-72.8
				s-4.9-49.7-14.7-72.8c-9.4-22.3-22.9-42.3-40.1-59.4c-17.2-17.2-37.2-30.7-59.4-40.1C236.7,4.9,212.2,0,187,0L187,0z"/>
		</g>
	</g>
</g>
</svg>
