<?xml version="1.0" encoding="utf-8"?>
<!-- Generator: Adobe Illustrator 21.0.0, SVG Export Plug-In . SVG Version: 6.00 Build 0)  -->
<svg version="1.1" id="background" xmlns="http://www.w3.org/2000/svg" xmlns:xlink="http://www.w3.org/1999/xlink" x="0px" y="0px"
	 viewBox="0 0 2880 1800" style="enable-background:new 0 0 2880 1800;" xml:space="preserve">
<style type="text/css">
	.st0{fill:url(#SVGID_1_);}
	.st1{display:none;}
	.st2{display:inline;fill:#1B3450;}
	.st3{display:inline;fill:#31244E;}
	.st4{display:inline;fill:#008B75;}
	.st5{display:inline;fill:#AD244E;}
	.st6{opacity:0.1;fill:url(#SVGID_2_);}
	.st7{opacity:0.1;fill:url(#SVGID_3_);}
	.st8{opacity:0.17;fill:url(#SVGID_4_);}
	.st9{opacity:0.13;fill:url(#SVGID_5_);}
	.st10{opacity:0.1;fill:url(#SVGID_6_);}
	.st11{opacity:0.18;fill:url(#SVGID_7_);}
	.st12{opacity:0.14;fill:url(#SVGID_8_);}
	.st13{opacity:0.14;fill:url(#SVGID_9_);}
	.st14{opacity:0.14;fill:url(#SVGID_10_);}
	.st15{opacity:0.14;fill:url(#SVGID_11_);}
	.st16{opacity:0.17;}
	.st17{fill:none;}
	.st18{fill:#FFFFFF;}
	.st19{opacity:0.52;}
	.st20{opacity:0.21;}
	.st21{opacity:0.61;}
</style>
<g id="background_1_">
	<linearGradient id="SVGID_1_" gradientUnits="userSpaceOnUse" x1="1438.2716" y1="1658.7478" x2="1441.9932" y2="24.9779">
		<stop  offset="3.145032e-02" style="stop-color:#008B75"/>
		<stop  offset="0.1583" style="stop-color:#0A6B68"/>
		<stop  offset="0.3061" style="stop-color:#134D5B"/>
		<stop  offset="0.4326" style="stop-color:#193B53"/>
		<stop  offset="0.522" style="stop-color:#1B3450"/>
		<stop  offset="1" style="stop-color:#31244E"/>
	</linearGradient>
	<rect class="st0" width="2880" height="1800"/>
</g>
<g id="swatches" class="st1">
	<rect x="329" y="-319" class="st2" width="142" height="142"/>
	<rect x="514" y="-319" class="st3" width="142" height="142"/>
	<rect x="701" y="-319" class="st4" width="142" height="142"/>
	<rect x="886" y="-319" class="st5" width="142" height="142"/>
</g>
<g id="clouds">
	<linearGradient id="SVGID_2_" gradientUnits="userSpaceOnUse" x1="-33" y1="461" x2="772" y2="461">
		<stop  offset="0" style="stop-color:#008B75"/>
		<stop  offset="0.1275" style="stop-color:#177D70"/>
		<stop  offset="0.7312" style="stop-color:#823D58"/>
		<stop  offset="1" style="stop-color:#AD244E"/>
	</linearGradient>
	<path class="st6" d="M730,503H9c-23.2,0-42-18.8-42-42v0c0-23.2,18.8-42,42-42h721c23.2,0,42,18.8,42,42v0
		C772,484.2,753.2,503,730,503z"/>
	<linearGradient id="SVGID_3_" gradientUnits="userSpaceOnUse" x1="471" y1="599" x2="843" y2="599">
		<stop  offset="0" style="stop-color:#008B75"/>
		<stop  offset="0.1275" style="stop-color:#177D70"/>
		<stop  offset="0.7312" style="stop-color:#823D58"/>
		<stop  offset="1" style="stop-color:#AD244E"/>
	</linearGradient>
	<path class="st7" d="M801,641H513c-23.2,0-42-18.8-42-42v0c0-23.2,18.8-42,42-42h288c23.2,0,42,18.8,42,42v0
		C843,622.2,824.2,641,801,641z"/>
	<linearGradient id="SVGID_4_" gradientUnits="userSpaceOnUse" x1="-204" y1="149" x2="601" y2="149">
		<stop  offset="0" style="stop-color:#008B75"/>
		<stop  offset="0.1275" style="stop-color:#177D70"/>
		<stop  offset="0.7312" style="stop-color:#823D58"/>
		<stop  offset="1" style="stop-color:#AD244E"/>
	</linearGradient>
	<path class="st8" d="M559,191h-721c-23.2,0-42-18.8-42-42v0c0-23.2,18.8-42,42-42h721c23.2,0,42,18.8,42,42v0
		C601,172.2,582.2,191,559,191z"/>
	<linearGradient id="SVGID_5_" gradientUnits="userSpaceOnUse" x1="236" y1="191" x2="732" y2="191">
		<stop  offset="0" style="stop-color:#008B75"/>
		<stop  offset="0.1275" style="stop-color:#177D70"/>
		<stop  offset="0.7312" style="stop-color:#823D58"/>
		<stop  offset="1" style="stop-color:#AD244E"/>
	</linearGradient>
	<path class="st9" d="M690,233H278c-23.2,0-42-18.8-42-42v0c0-23.2,18.8-42,42-42h412c23.2,0,42,18.8,42,42v0
		C732,214.2,713.2,233,690,233z"/>
	<linearGradient id="SVGID_6_" gradientUnits="userSpaceOnUse" x1="-457" y1="973" x2="348" y2="973">
		<stop  offset="0" style="stop-color:#008B75"/>
		<stop  offset="0.1275" style="stop-color:#177D70"/>
		<stop  offset="0.7312" style="stop-color:#823D58"/>
		<stop  offset="1" style="stop-color:#AD244E"/>
	</linearGradient>
	<path class="st10" d="M306,1015h-721c-23.2,0-42-18.8-42-42v0c0-23.2,18.8-42,42-42h721c23.2,0,42,18.8,42,42v0
		C348,996.2,329.2,1015,306,1015z"/>
	<linearGradient id="SVGID_7_" gradientUnits="userSpaceOnUse" x1="2269" y1="191" x2="3074" y2="191">
		<stop  offset="0" style="stop-color:#008B75"/>
		<stop  offset="0.1275" style="stop-color:#177D70"/>
		<stop  offset="0.7312" style="stop-color:#823D58"/>
		<stop  offset="1" style="stop-color:#AD244E"/>
	</linearGradient>
	<path class="st11" d="M3032,233h-721c-23.2,0-42-18.8-42-42v0c0-23.2,18.8-42,42-42h721c23.2,0,42,18.8,42,42v0
		C3074,214.2,3055.2,233,3032,233z"/>
	<linearGradient id="SVGID_8_" gradientUnits="userSpaceOnUse" x1="1860" y1="575" x2="3230" y2="575">
		<stop  offset="0" style="stop-color:#008B75"/>
		<stop  offset="0.1275" style="stop-color:#177D70"/>
		<stop  offset="0.7312" style="stop-color:#823D58"/>
		<stop  offset="1" style="stop-color:#AD244E"/>
	</linearGradient>
	<path class="st12" d="M3188,617H1902c-23.2,0-42-18.8-42-42v0c0-23.2,18.8-42,42-42h1286c23.2,0,42,18.8,42,42v0
		C3230,598.2,3211.2,617,3188,617z"/>
	
		<linearGradient id="SVGID_9_" gradientUnits="userSpaceOnUse" x1="2103" y1="809" x2="2908" y2="809" gradientTransform="matrix(-1 0 0 -1 4491 1450)">
		<stop  offset="0" style="stop-color:#008B75"/>
		<stop  offset="0.1275" style="stop-color:#177D70"/>
		<stop  offset="0.7312" style="stop-color:#823D58"/>
		<stop  offset="1" style="stop-color:#AD244E"/>
	</linearGradient>
	<path class="st13" d="M1625,599h721c23.2,0,42,18.8,42,42v0c0,23.2-18.8,42-42,42h-721c-23.2,0-42-18.8-42-42v0
		C1583,617.8,1601.8,599,1625,599z"/>
	
		<linearGradient id="SVGID_10_" gradientUnits="userSpaceOnUse" x1="1459" y1="456" x2="2264" y2="456" gradientTransform="matrix(-1 0 0 -1 4491 1450)">
		<stop  offset="0" style="stop-color:#008B75"/>
		<stop  offset="0.1275" style="stop-color:#177D70"/>
		<stop  offset="0.7312" style="stop-color:#823D58"/>
		<stop  offset="1" style="stop-color:#AD244E"/>
	</linearGradient>
	<path class="st14" d="M2269,952h721c23.2,0,42,18.8,42,42v0c0,23.2-18.8,42-42,42h-721c-23.2,0-42-18.8-42-42v0
		C2227,970.8,2245.8,952,2269,952z"/>
	
		<linearGradient id="SVGID_11_" gradientUnits="userSpaceOnUse" x1="3960" y1="417" x2="4765" y2="417" gradientTransform="matrix(-1 0 0 -1 4491 1450)">
		<stop  offset="0" style="stop-color:#008B75"/>
		<stop  offset="0.1275" style="stop-color:#177D70"/>
		<stop  offset="0.7312" style="stop-color:#823D58"/>
		<stop  offset="1" style="stop-color:#AD244E"/>
	</linearGradient>
	<path class="st15" d="M-232,991h721c23.2,0,42,18.8,42,42l0,0c0,23.2-18.8,42-42,42h-721c-23.2,0-42-18.8-42-42l0,0
		C-274,1009.8-255.2,991-232,991z"/>
</g>
<g id="stars">
	<g class="st16">
		<g>
			<g>
				<rect x="1683.4" y="-34.4" class="st17" width="22.6" height="22.3"/>
				<ellipse class="st18" cx="1694.7" cy="-23.2" rx="11.3" ry="11.2"/>
			</g>
			<g>
				<rect x="1457.6" y="28.1" class="st17" width="15.5" height="15.3"/>
				<ellipse class="st18" cx="1465.4" cy="35.8" rx="7.8" ry="7.7"/>
			</g>
			<g>
				<rect x="1435.6" y="-84.1" class="st17" width="16" height="15.8"/>
				<ellipse class="st18" cx="1443.6" cy="-76.2" rx="8" ry="7.9"/>
			</g>
			<g>
				<rect x="1389.9" y="-142.6" class="st17" width="16.2" height="16"/>
				<ellipse class="st18" cx="1398" cy="-134.6" rx="8.1" ry="8"/>
			</g>
			<g>
				<rect x="1272.1" y="94" class="st17" width="17.1" height="16.9"/>
				<ellipse class="st18" cx="1280.7" cy="102.5" rx="8.5" ry="8.4"/>
			</g>
			<g>
				<rect x="1144.1" y="0" class="st17" width="26.6" height="26.3"/>
				<ellipse class="st18" cx="1157.4" cy="13.2" rx="13.3" ry="13.2"/>
			</g>
			<g>
				<rect x="959.8" y="170.6" class="st17" width="25.6" height="25.3"/>
				<ellipse class="st18" cx="972.6" cy="183.2" rx="12.8" ry="12.7"/>
			</g>
			<g>
				<rect x="847.5" y="48" class="st17" width="23.3" height="23"/>
				<ellipse class="st18" cx="859.2" cy="59.5" rx="11.7" ry="11.5"/>
			</g>
			<g>
				<rect x="762.1" y="42" class="st17" width="16.3" height="16.1"/>
				<ellipse class="st18" cx="770.2" cy="50" rx="8.1" ry="8"/>
			</g>
			<g>
				<rect x="748.2" y="254.1" class="st17" width="20" height="19.7"/>
				<ellipse class="st18" cx="758.2" cy="263.9" rx="10" ry="9.9"/>
			</g>
			<g>
				<rect x="502" y="-29.8" class="st17" width="26.7" height="26.4"/>
				<ellipse class="st18" cx="515.3" cy="-16.6" rx="13.4" ry="13.2"/>
			</g>
			<g>
				<rect x="431.4" y="194.3" class="st17" width="27.2" height="26.9"/>
				<ellipse class="st18" cx="445" cy="207.8" rx="13.6" ry="13.4"/>
			</g>
			<g>
				<rect x="233" y="156.1" class="st17" width="26.3" height="26"/>
				<ellipse class="st18" cx="246.2" cy="169.1" rx="13.1" ry="13"/>
			</g>
			<g>
				<rect x="126.7" y="434.5" class="st17" width="25.9" height="25.5"/>
				<ellipse class="st18" cx="139.6" cy="447.3" rx="12.9" ry="12.8"/>
			</g>
			<g>
				<rect x="-85.7" y="399" class="st17" width="17.5" height="17.3"/>
				<ellipse class="st18" cx="-77" cy="407.6" rx="8.7" ry="8.6"/>
			</g>
			<g>
				<rect x="-377.4" y="310.6" class="st17" width="19.3" height="19.1"/>
				<ellipse class="st18" cx="-367.7" cy="320.1" rx="9.7" ry="9.5"/>
			</g>
		</g>
	</g>
	<g class="st19">
		<g>
			<g>
				<rect x="2413.3" y="43.7" class="st17" width="15.6" height="15.5"/>
				<ellipse class="st18" cx="2421.1" cy="51.4" rx="7.8" ry="7.7"/>
			</g>
			<g>
				<rect x="2277.4" y="-29.6" class="st17" width="27.3" height="27"/>
				<ellipse class="st18" cx="2291" cy="-16.2" rx="13.6" ry="13.5"/>
			</g>
			<g>
				<rect x="2149.8" y="-150.3" class="st17" width="23.7" height="23.4"/>
				<ellipse class="st18" cx="2161.6" cy="-138.6" rx="11.8" ry="11.7"/>
			</g>
			<g>
				<rect x="2054" y="162" class="st17" width="16.2" height="16"/>
				<ellipse class="st18" cx="2062.1" cy="170" rx="8.1" ry="8"/>
			</g>
			<g>
				<rect x="1960.3" y="275.1" class="st17" width="26.6" height="26.3"/>
				<ellipse class="st18" cx="1973.6" cy="288.3" rx="13.3" ry="13.1"/>
			</g>
			<g>
				<rect x="1851.7" y="336.4" class="st17" width="19.5" height="19.3"/>
				<ellipse class="st18" cx="1861.5" cy="346" rx="9.8" ry="9.6"/>
			</g>
			<g>
				<rect x="1596.2" y="78" class="st17" width="21.1" height="20.9"/>
				<ellipse class="st18" cx="1606.8" cy="88.4" rx="10.6" ry="10.4"/>
			</g>
			<g>
				<rect x="1495.2" y="368.2" class="st17" width="23.3" height="23"/>
				<ellipse class="st18" cx="1506.8" cy="379.7" rx="11.7" ry="11.5"/>
			</g>
			<g>
				<rect x="1283.4" y="402.7" class="st17" width="18.8" height="18.6"/>
				<ellipse class="st18" cx="1292.8" cy="412" rx="9.4" ry="9.3"/>
			</g>
			<g>
				<rect x="1163.9" y="188.7" class="st17" width="26.4" height="26.1"/>
				<ellipse class="st18" cx="1177" cy="201.8" rx="13.2" ry="13"/>
			</g>
			<g>
				<rect x="1151.6" y="371.1" class="st17" width="22.1" height="21.8"/>
				<ellipse class="st18" cx="1162.7" cy="382" rx="11.1" ry="10.9"/>
			</g>
			<g>
				<rect x="1161" y="538.4" class="st17" width="21.9" height="21.7"/>
				<ellipse class="st18" cx="1172" cy="549.2" rx="11" ry="10.8"/>
			</g>
			<g>
				<rect x="809.6" y="293.3" class="st17" width="26.1" height="25.8"/>
				<ellipse class="st18" cx="822.7" cy="306.2" rx="13.1" ry="12.9"/>
			</g>
			<g>
				<rect x="689.1" y="431.2" class="st17" width="18.8" height="18.6"/>
				<ellipse class="st18" cx="698.6" cy="440.5" rx="9.4" ry="9.3"/>
			</g>
			<g>
				<rect x="646.3" y="438.4" class="st17" width="15.5" height="15.3"/>
				<ellipse class="st18" cx="654.1" cy="446" rx="7.7" ry="7.7"/>
			</g>
			<g>
				<rect x="456.8" y="625.6" class="st17" width="15.4" height="15.2"/>
				<ellipse class="st18" cx="464.5" cy="633.2" rx="7.7" ry="7.6"/>
			</g>
			<g>
				<rect x="351.6" y="582.6" class="st17" width="26.9" height="26.5"/>
				<ellipse class="st18" cx="365" cy="595.8" rx="13.4" ry="13.3"/>
			</g>
			<g>
				<rect x="295.7" y="718.1" class="st17" width="23.8" height="23.5"/>
				<ellipse class="st18" cx="307.6" cy="729.9" rx="11.9" ry="11.8"/>
			</g>
			<g>
				<rect x="77.6" y="593.3" class="st17" width="22.5" height="22.3"/>
				<ellipse class="st18" cx="88.9" cy="604.4" rx="11.3" ry="11.1"/>
			</g>
			<g>
				<rect x="7.8" y="785.4" class="st17" width="21.7" height="21.5"/>
				<ellipse class="st18" cx="18.7" cy="796.2" rx="10.9" ry="10.7"/>
			</g>
			<g>
				<rect x="-231" y="583.1" class="st17" width="18.6" height="18.4"/>
				<ellipse class="st18" cx="-221.7" cy="592.3" rx="9.3" ry="9.2"/>
			</g>
			<g>
				<rect x="-257.7" y="692" class="st17" width="26.8" height="26.5"/>
				<ellipse class="st18" cx="-244.3" cy="705.2" rx="13.4" ry="13.2"/>
			</g>
			<g>
				<rect x="-303.2" y="567.1" class="st17" width="15.1" height="15"/>
				<ellipse class="st18" cx="-295.7" cy="574.6" rx="7.6" ry="7.5"/>
			</g>
		</g>
	</g>
	<g class="st19">
		<g>
			<g>
				<rect x="1651.1" y="-692.3" class="st17" width="19.8" height="19.5"/>
				<ellipse class="st18" cx="1661" cy="-682.5" rx="9.9" ry="9.8"/>
			</g>
		</g>
	</g>
	<g class="st20">
		<g>
			<g>
				<rect x="402.2" y="818.1" class="st17" width="21.1" height="20.8"/>
				<ellipse class="st18" cx="412.7" cy="828.5" rx="10.5" ry="10.4"/>
			</g>
			<g>
				<rect x="625.1" y="1138.5" class="st17" width="19.1" height="18.9"/>
				<ellipse class="st18" cx="634.6" cy="1147.9" rx="9.5" ry="9.4"/>
			</g>
			<g>
				<rect x="773.2" y="999.5" class="st17" width="24.2" height="23.9"/>
				<ellipse class="st18" cx="785.4" cy="1011.4" rx="12.1" ry="12"/>
			</g>
			<g>
				<rect x="742.5" y="751.9" class="st17" width="24.1" height="23.8"/>
				<ellipse class="st18" cx="754.6" cy="763.8" rx="12.1" ry="11.9"/>
			</g>
			<g>
				<rect x="993.9" y="674.5" class="st17" width="15.5" height="15.3"/>
				<ellipse class="st18" cx="1001.7" cy="682.2" rx="7.8" ry="7.7"/>
			</g>
			<g>
				<rect x="1169.5" y="669.4" class="st17" width="18.1" height="17.8"/>
				<ellipse class="st18" cx="1178.5" cy="678.3" rx="9" ry="8.9"/>
			</g>
			<g>
				<rect x="1436" y="689.6" class="st17" width="16" height="15.8"/>
				<ellipse class="st18" cx="1444" cy="697.5" rx="8" ry="7.9"/>
			</g>
			<g>
				<rect x="1645.9" y="554.6" class="st17" width="23.3" height="23.1"/>
				<ellipse class="st18" cx="1657.6" cy="566.2" rx="11.7" ry="11.5"/>
			</g>
			<g>
				<rect x="1732.3" y="477.9" class="st17" width="24.3" height="24"/>
				<ellipse class="st18" cx="1744.4" cy="489.9" rx="12.1" ry="12"/>
			</g>
			<g>
				<rect x="1818.2" y="625.1" class="st17" width="15.6" height="15.4"/>
				<ellipse class="st18" cx="1826" cy="632.8" rx="7.8" ry="7.7"/>
			</g>
			<g>
				<rect x="1885.8" y="315.3" class="st17" width="27.4" height="27"/>
				<ellipse class="st18" cx="1899.5" cy="328.8" rx="13.7" ry="13.5"/>
			</g>
			<g>
				<rect x="2001.1" y="633.1" class="st17" width="18.1" height="17.9"/>
				<ellipse class="st18" cx="2010.2" cy="642" rx="9.1" ry="8.9"/>
			</g>
			<g>
				<rect x="2014.9" y="601.3" class="st17" width="17.5" height="17.3"/>
				<ellipse class="st18" cx="2023.7" cy="610" rx="8.8" ry="8.7"/>
			</g>
			<g>
				<rect x="2036.9" y="573.8" class="st17" width="23.5" height="23.2"/>
				<ellipse class="st18" cx="2048.7" cy="585.4" rx="11.8" ry="11.6"/>
			</g>
			<g>
				<rect x="2232.4" y="574.5" class="st17" width="18" height="17.8"/>
				<ellipse class="st18" cx="2241.4" cy="583.4" rx="9" ry="8.9"/>
			</g>
			<g>
				<rect x="2287.6" y="300" class="st17" width="15.9" height="15.7"/>
				<ellipse class="st18" cx="2295.6" cy="307.9" rx="8" ry="7.9"/>
			</g>
			<g>
				<rect x="2382.8" y="488.8" class="st17" width="19.3" height="19.1"/>
				<ellipse class="st18" cx="2392.4" cy="498.4" rx="9.7" ry="9.5"/>
			</g>
			<g>
				<rect x="2620.5" y="370.7" class="st17" width="21.6" height="21.3"/>
				<ellipse class="st18" cx="2631.3" cy="381.3" rx="10.8" ry="10.7"/>
			</g>
		</g>
	</g>
	<g class="st21">
		<g>
			<g>
				<rect x="1235.3" y="1518.5" class="st17" width="16.8" height="16.6"/>
				<ellipse class="st18" cx="1243.7" cy="1526.8" rx="8.4" ry="8.3"/>
			</g>
			<g>
				<rect x="1431.1" y="1352" class="st17" width="23.7" height="23.4"/>
				<ellipse class="st18" cx="1442.9" cy="1363.7" rx="11.8" ry="11.7"/>
			</g>
			<g>
				<rect x="1555.6" y="1089" class="st17" width="15.6" height="15.4"/>
				<ellipse class="st18" cx="1563.4" cy="1096.7" rx="7.8" ry="7.7"/>
			</g>
			<g>
				<rect x="1564.2" y="1003.3" class="st17" width="26.4" height="26.1"/>
				<ellipse class="st18" cx="1577.4" cy="1016.3" rx="13.2" ry="13.1"/>
			</g>
			<g>
				<rect x="1807.1" y="1155.1" class="st17" width="17.9" height="17.7"/>
				<ellipse class="st18" cx="1816" cy="1163.9" rx="9" ry="8.9"/>
			</g>
			<g>
				<rect x="1704.6" y="887.8" class="st17" width="18.1" height="17.8"/>
				<ellipse class="st18" cx="1713.6" cy="896.7" rx="9" ry="8.9"/>
			</g>
			<g>
				<rect x="2015" y="1129.5" class="st17" width="23.4" height="23.1"/>
				<ellipse class="st18" cx="2026.7" cy="1141" rx="11.7" ry="11.5"/>
			</g>
			<g>
				<rect x="2054.8" y="785.1" class="st17" width="25" height="24.6"/>
				<ellipse class="st18" cx="2067.3" cy="797.4" rx="12.5" ry="12.3"/>
			</g>
			<g>
				<rect x="2342.2" y="949.1" class="st17" width="20.4" height="20.2"/>
				<ellipse class="st18" cx="2352.4" cy="959.2" rx="10.2" ry="10.1"/>
			</g>
			<g>
				<rect x="2460.6" y="744.5" class="st17" width="23.5" height="23.2"/>
				<ellipse class="st18" cx="2472.3" cy="756.1" rx="11.8" ry="11.6"/>
			</g>
			<g>
				<rect x="2719.3" y="893.4" class="st17" width="18.5" height="18.3"/>
				<ellipse class="st18" cx="2728.6" cy="902.5" rx="9.2" ry="9.1"/>
			</g>
			<g>
				<rect x="2856.6" y="607.4" class="st17" width="27.6" height="27.3"/>
				<ellipse class="st18" cx="2870.4" cy="621.1" rx="13.8" ry="13.6"/>
			</g>
			<g>
				<rect x="2988.1" y="538.9" class="st17" width="20.5" height="20.3"/>
				<ellipse class="st18" cx="2998.4" cy="549" rx="10.3" ry="10.1"/>
			</g>
			<g>
				<rect x="3154.3" y="863.1" class="st17" width="19.2" height="19"/>
				<ellipse class="st18" cx="3163.9" cy="872.6" rx="9.6" ry="9.5"/>
			</g>
		</g>
	</g>
</g>
<path id="mountains" d="M2880,1800H-156.5c-26.2,0-47.5-21.3-47.5-47.5v-158c0-8.8,2.5-17.5,7.1-25l276.1-447.1
	c21.6-35,74.4-27.9,86,11.5l86.5,292.7c10.6,35.8,56.5,46,81.2,18l90.3-102.3c24.5-27.8,70-18.1,81,17.3l58.5,188
	c6.2,19.9,24.6,33.4,45.4,33.4h213.8h99h177c12,0,24-1,35.8-2.9l448.8-73.7c89.3-14.7,180.9-3.9,264.4,31l22.8,9.5
	c52,21.7,112,9.3,151.1-31.3l73.4-76.3c47.1-48.9,127.7-40.5,163.7,17.1l0,0c33.1,52.9,112.1,46.3,136-11.4l210.9-510.5
	c13.1-31.6,58.4-29.7,68.8,2.8L3003,1617L2880,1800z"/>
</svg>
