<?xml version="1.0" encoding="utf-8"?>
<!-- Generator: Adobe Illustrator 22.0.1, SVG Export Plug-In . SVG Version: 6.00 Build 0)  -->
<svg version="1.1" xmlns="http://www.w3.org/2000/svg" xmlns:xlink="http://www.w3.org/1999/xlink" x="0px" y="0px"
	 viewBox="0 0 438.8 515.6" style="enable-background:new 0 0 438.8 515.6;" xml:space="preserve"
	 width='300'>
<style type="text/css">
	.st0{fill:url(#SVGID_1_);}
	.st1{opacity:0.1;fill:url(#SVGID_2_);}
	.st2{opacity:0.1;fill:url(#SVGID_3_);}
	.st3{opacity:0.17;fill:url(#SVGID_4_);}
	.st4{opacity:0.13;fill:url(#SVGID_5_);}
	.st5{opacity:0.1;fill:url(#SVGID_6_);}
	.st6{opacity:0.18;fill:url(#SVGID_7_);}
	.st7{opacity:0.14;fill:url(#SVGID_8_);}
	.st8{opacity:0.14;fill:url(#SVGID_9_);}
	.st9{opacity:0.14;fill:url(#SVGID_10_);}
	.st10{opacity:0.14;fill:url(#SVGID_11_);}
	.st11{opacity:0.17;}
	.st12{fill:none;}
	.st13{fill:#FFFFFF;}
	.st14{opacity:0.52;}
	.st15{opacity:0.21;}
	.st16{opacity:0.61;}
	.st17{fill:#1B3450;}
	.st18{fill:#31244E;}
	.st19{fill:#008B75;}
	.st20{fill:#AD244E;}
	.st21{clip-path:url(#SVGID_13_);}
	.st22{fill:#FFA1A1;stroke:#9E1919;stroke-width:5.9794;stroke-linecap:round;stroke-linejoin:round;stroke-miterlimit:10;}
	.st23{fill:#D88282;stroke:#9E1919;stroke-width:5.9794;stroke-linecap:round;stroke-linejoin:round;stroke-miterlimit:10;}
	.st24{fill:#FFFFFF;stroke:#9E1919;stroke-width:5.9794;stroke-linecap:round;stroke-linejoin:round;stroke-miterlimit:10;}
	.st25{fill:#FFFFFF;stroke:#9E1919;stroke-width:2.3758;stroke-linecap:round;stroke-linejoin:round;stroke-miterlimit:10;}
	.st26{fill:#FFA1A1;stroke:#9E1919;stroke-width:4.637;stroke-linecap:round;stroke-linejoin:round;stroke-miterlimit:10;}
	.st27{opacity:0.3;fill:#9E1919;}
	.st28{fill:#001405;}
	.st29{clip-path:url(#SVGID_13_);fill:none;}
	.st30{fill:url(#SVGID_14_);}
	.st31{clip-path:url(#SVGID_16_);}
	.st32{fill:#488442;stroke:#005115;stroke-width:5;stroke-miterlimit:10;}
	.st33{fill:#58C44D;stroke:#005115;stroke-width:5;stroke-miterlimit:10;}
	.st34{opacity:0.3;fill:#005115;}
	.st35{fill:#FFFFFF;stroke:#005115;stroke-width:5;stroke-miterlimit:10;}
	.st36{fill:#7FEA73;stroke:#005115;stroke-width:5;stroke-miterlimit:10;}
	.st37{fill:url(#SVGID_17_);}
	.st38{clip-path:url(#SVGID_19_);}
	.st39{fill:#50E6FF;stroke:#005D82;stroke-width:5;stroke-linecap:round;stroke-linejoin:round;stroke-miterlimit:10;}
	.st40{fill:#2DA1AD;stroke:#005D82;stroke-width:5;stroke-linecap:round;stroke-linejoin:round;stroke-miterlimit:10;}
	.st41{opacity:0.3;fill:#005D82;}
	.st42{fill:#FFFFFF;stroke:#005D82;stroke-width:5;stroke-linecap:round;stroke-linejoin:round;stroke-miterlimit:10;}
	.st43{fill:none;stroke:#005D82;stroke-width:5;stroke-linecap:round;stroke-linejoin:round;stroke-miterlimit:10;}
	.st44{fill:url(#SVGID_20_);}
	.st45{clip-path:url(#SVGID_22_);}
	.st46{fill:#FF97E7;stroke:#9B0486;stroke-width:5;stroke-linecap:round;stroke-linejoin:round;stroke-miterlimit:10;}
	.st47{fill:none;stroke:#9B0486;stroke-width:5;stroke-linecap:round;stroke-linejoin:round;stroke-miterlimit:10;}
	.st48{opacity:0.3;fill:#9B0486;}
	.st49{fill:#FFFFFF;stroke:#9B0486;stroke-width:5;stroke-linecap:round;stroke-linejoin:round;stroke-miterlimit:10;}
	.st50{fill:url(#SVGID_23_);}
	.st51{clip-path:url(#SVGID_25_);fill:none;}
	.st52{clip-path:url(#SVGID_25_);}
	.st53{fill:#D18DE2;stroke:#460166;stroke-width:5.6255;stroke-miterlimit:10;}
	.st54{opacity:0.3;fill:#460166;}
	.st55{fill:none;stroke:#460166;stroke-width:5.6255;stroke-linecap:round;stroke-miterlimit:10;}
	.st56{fill:#FFFFFF;stroke:#460166;stroke-width:5.6255;stroke-miterlimit:10;}
	.st57{fill:url(#SVGID_26_);}
	.st58{fill:none;stroke:#000000;stroke-width:5;stroke-linecap:round;stroke-miterlimit:10;}
	.st59{clip-path:url(#SVGID_28_);}
	.st60{clip-path:url(#SVGID_30_);}
	.st61{clip-path:url(#SVGID_32_);}
	.st62{clip-path:url(#SVGID_34_);}
</style>
<g id="Layer_2">
</g>
<g id="Layer_1">
	<g>
		<g>
			<g>
				<defs>
					<rect id="SVGID_33_" x="138.4" y="32.9" width="300.4" height="414"/>
				</defs>
				<clipPath id="SVGID_1_">
					<use xlink:href="#SVGID_33_"  style="overflow:visible;"/>
				</clipPath>
				<g style="clip-path:url(#SVGID_1_);">
					<path class="st22" d="M62.7,468.1c39.7-44.1,233.9-64.9,146.9-205.7C178.4,211.9,42.7,174.9,3,219L62.7,468.1z"/>
					<path class="st23" d="M192.2,109.2c44.2-51.8,122-58,173.8-13.9c51.8,44.2,58,122,13.9,173.8c-44.2,51.8-122,58-173.8,13.9
						C154.2,238.8,148,161,192.2,109.2z"/>
					<g>
						<path class="st22" d="M409.5,278.7c30.3-35.5,26-88.9-9.5-119.2c-19.9-16.9-45.3-23.1-69.2-19c3-27-6.9-54.9-29.2-73.9
							c-35.5-30.3-88.9-26-119.2,9.5c-11.3,13.2-17.7,28.9-19.6,44.9c-10.6,4.6-19.9,11.3-27.4,20.1
							c-36.3,42.6-17.1,118.7,42.9,169.8c60,51.1,138.1,58,174.5,15.4c5.2-6.2,9.3-13,12.3-20.4C381.8,302,397.4,292.8,409.5,278.7z
							"/>
						<path class="st24" d="M280.4,175.4c-19.5,22.9-53.8,25.6-76.7,6.1c-22.9-19.5-25.6-53.8-6.1-76.7
							c19.5-22.9,53.8-25.6,76.7-6.1C297.2,118.2,299.9,152.5,280.4,175.4z"/>
						<polygon class="st25" points="179.1,213.4 188.5,234.5 165,236 						"/>
						<path class="st26" d="M177.8,204.7c0,0,14.1,57.6,72.2,75.9"/>
						<polygon class="st25" points="243.9,281.3 224.2,269.2 219.5,292.3 						"/>
						<path class="st27" d="M400,159.6c-18.3-15.6-41.2-22-63.3-19.7c20.3,28,87.5,128.6,12.1,141.7c0,0-11.3,70.8-130.1,56.1
							c51.1,25.2,105.6,22.3,134.1-11.2c5.2-6.2,9.3-13,12.3-20.4c16.7-4,32.4-13.2,44.4-27.3C439.7,243.2,435.5,189.8,400,159.6z"
							/>
						<path class="st24" d="M381.9,270.9c-20.9,24.6-57.9,27.5-82.4,6.6c-24.6-20.9-27.5-57.9-6.6-82.4
							c20.9-24.6,57.9-27.5,82.4-6.6C399.9,209.4,402.9,246.3,381.9,270.9z"/>
						<path class="st28" d="M250.3,149.6c-5.3,6.2-14.6,6.9-20.8,1.7c-6.2-5.3-6.9-14.6-1.7-20.8c5.3-6.2,14.6-6.9,20.8-1.7
							C254.8,134.2,255.5,143.5,250.3,149.6z"/>
						<path class="st28" d="M348.6,242.5c-5.3,6.2-14.6,6.9-20.8,1.7c-6.2-5.3-6.9-14.6-1.7-20.8c5.3-6.2,14.6-6.9,20.8-1.7
							C353.2,227,353.9,236.3,348.6,242.5z"/>
					</g>
				</g>
			</g>
		</g>
		<line class="st58" x1="138" y1="2.5" x2="138" y2="513.1"/>
	</g>
</g>
</svg>
